solid OpenSCAD_Model
  facet normal -0 0 1
    outer loop
      vertex 0 65 3
      vertex 97 0 3
      vertex 97 65 3
    endloop
  endfacet
  facet normal 0 0 1
    outer loop
      vertex 97 0 3
      vertex 0 65 3
      vertex 0 0 3
    endloop
  endfacet
  facet normal 0 0 -1
    outer loop
      vertex 0 0 0
      vertex 97 65 0
      vertex 97 0 0
    endloop
  endfacet
  facet normal -0 0 -1
    outer loop
      vertex 97 65 0
      vertex 0 0 0
      vertex 0 65 0
    endloop
  endfacet
  facet normal 0 -1 0
    outer loop
      vertex 0 0 0
      vertex 97 0 3
      vertex 0 0 3
    endloop
  endfacet
  facet normal 0 -1 -0
    outer loop
      vertex 97 0 3
      vertex 0 0 0
      vertex 97 0 0
    endloop
  endfacet
  facet normal 1 -0 0
    outer loop
      vertex 97 0 3
      vertex 97 65 0
      vertex 97 65 3
    endloop
  endfacet
  facet normal 1 0 0
    outer loop
      vertex 97 65 0
      vertex 97 0 3
      vertex 97 0 0
    endloop
  endfacet
  facet normal 0 1 -0
    outer loop
      vertex 97 65 0
      vertex 0 65 3
      vertex 97 65 3
    endloop
  endfacet
  facet normal 0 1 0
    outer loop
      vertex 0 65 3
      vertex 97 65 0
      vertex 0 65 0
    endloop
  endfacet
  facet normal -1 0 0
    outer loop
      vertex 0 0 0
      vertex 0 65 3
      vertex 0 65 0
    endloop
  endfacet
  facet normal -1 -0 0
    outer loop
      vertex 0 65 3
      vertex 0 0 0
      vertex 0 0 3
    endloop
  endfacet
endsolid OpenSCAD_Model
