solid OpenSCAD_Model
  facet normal 0 0 -1
    outer loop
      vertex -6 0 0
      vertex 32 66 0
      vertex 32 0 0
    endloop
  endfacet
  facet normal -0 0 -1
    outer loop
      vertex 32 66 0
      vertex -6 0 0
      vertex -6 66 0
    endloop
  endfacet
  facet normal 0 0 -1
    outer loop
      vertex 132 -10 0
      vertex 179 61 0
      vertex 179 7.29999 0
    endloop
  endfacet
  facet normal 0 0 -1
    outer loop
      vertex 132 -10 0
      vertex 132 79 0
      vertex 179 61 0
    endloop
  endfacet
  facet normal 0 0 -1
    outer loop
      vertex 32 0 0
      vertex 132 -10 0
      vertex 32 -10 0
    endloop
  endfacet
  facet normal 0 0 -1
    outer loop
      vertex 32 66 0
      vertex 132 -10 0
      vertex 32 0 0
    endloop
  endfacet
  facet normal 0 0 -1
    outer loop
      vertex 132 -10 0
      vertex 32 66 0
      vertex 132 79 0
    endloop
  endfacet
  facet normal -0 0 -1
    outer loop
      vertex 132 79 0
      vertex 32 66 0
      vertex 32 79 0
    endloop
  endfacet
  facet normal -0 0 1
    outer loop
      vertex -6 66 3
      vertex 32 0 3
      vertex 32 66 3
    endloop
  endfacet
  facet normal 0 0 1
    outer loop
      vertex 32 0 3
      vertex -6 66 3
      vertex -6 0 3
    endloop
  endfacet
  facet normal -0 0 1
    outer loop
      vertex 50 74.5 3
      vertex 70 -5.5 3
      vertex 70 74.5 3
    endloop
  endfacet
  facet normal 0 0 1
    outer loop
      vertex 70 -5.5 3
      vertex 50 74.5 3
      vertex 50 -5.5 3
    endloop
  endfacet
  facet normal -0 0 1
    outer loop
      vertex 100 74.5 3
      vertex 120 -5.5 3
      vertex 120 74.5 3
    endloop
  endfacet
  facet normal 0 0 1
    outer loop
      vertex 120 -5.5 3
      vertex 100 74.5 3
      vertex 100 -5.5 3
    endloop
  endfacet
  facet normal 0 0 1
    outer loop
      vertex 120 -5.5 3
      vertex 174.5 27 3
      vertex 120 74.5 3
    endloop
  endfacet
  facet normal 0 0 1
    outer loop
      vertex 174.5 27 3
      vertex 120 -5.5 3
      vertex 132 -10 3
    endloop
  endfacet
  facet normal -0 0 1
    outer loop
      vertex 120 -7.5 3
      vertex 132 -10 3
      vertex 120 -5.5 3
    endloop
  endfacet
  facet normal -0 0 1
    outer loop
      vertex 100 -7.5 3
      vertex 132 -10 3
      vertex 120 -7.5 3
    endloop
  endfacet
  facet normal 0 0 1
    outer loop
      vertex 70 -5.5 3
      vertex 100 -5.5 3
      vertex 70 74.5 3
    endloop
  endfacet
  facet normal 0 0 1
    outer loop
      vertex 100 -5.5 3
      vertex 70 -5.5 3
      vertex 100 -7.5 3
    endloop
  endfacet
  facet normal 0 0 1
    outer loop
      vertex 70 -7.5 3
      vertex 100 -7.5 3
      vertex 70 -5.5 3
    endloop
  endfacet
  facet normal 0 0 1
    outer loop
      vertex 100 -7.5 3
      vertex 70 -7.5 3
      vertex 132 -10 3
    endloop
  endfacet
  facet normal 0 0 1
    outer loop
      vertex 32 -10 3
      vertex 70 -7.5 3
      vertex 50 -7.5 3
    endloop
  endfacet
  facet normal -0 0 1
    outer loop
      vertex 32 0 3
      vertex 50 -5.5 3
      vertex 32 66 3
    endloop
  endfacet
  facet normal 0 0 1
    outer loop
      vertex 32 -10 3
      vertex 50 -5.5 3
      vertex 32 0 3
    endloop
  endfacet
  facet normal 0 0 1
    outer loop
      vertex 70 -7.5 3
      vertex 32 -10 3
      vertex 132 -10 3
    endloop
  endfacet
  facet normal 0 0 1
    outer loop
      vertex 50 -5.5 3
      vertex 32 -10 3
      vertex 50 -7.5 3
    endloop
  endfacet
  facet normal 0 0 1
    outer loop
      vertex 176.5 27 3
      vertex 179 61 3
      vertex 176.5 47 3
    endloop
  endfacet
  facet normal 0 0 1
    outer loop
      vertex 179 61 3
      vertex 174.5 47 3
      vertex 176.5 47 3
    endloop
  endfacet
  facet normal 0 0 1
    outer loop
      vertex 120 74.5 3
      vertex 132 79 3
      vertex 120 76.5 3
    endloop
  endfacet
  facet normal 0 0 1
    outer loop
      vertex 132 79 3
      vertex 174.5 47 3
      vertex 179 61 3
    endloop
  endfacet
  facet normal 0 0 1
    outer loop
      vertex 179 61 3
      vertex 176.5 27 3
      vertex 179 7.29999 3
    endloop
  endfacet
  facet normal -0 0 1
    outer loop
      vertex 174.5 27 3
      vertex 179 7.29999 3
      vertex 176.5 27 3
    endloop
  endfacet
  facet normal 0 0 1
    outer loop
      vertex 132 79 3
      vertex 120 74.5 3
      vertex 174.5 47 3
    endloop
  endfacet
  facet normal 0 0 1
    outer loop
      vertex 174.5 27 3
      vertex 132 -10 3
      vertex 179 7.29999 3
    endloop
  endfacet
  facet normal 0 0 1
    outer loop
      vertex 174.5 47 3
      vertex 120 74.5 3
      vertex 174.5 27 3
    endloop
  endfacet
  facet normal 0 0 1
    outer loop
      vertex 132 79 3
      vertex 100 76.5 3
      vertex 120 76.5 3
    endloop
  endfacet
  facet normal -0 0 1
    outer loop
      vertex 70 76.5 3
      vertex 100 74.5 3
      vertex 100 76.5 3
    endloop
  endfacet
  facet normal 0 0 1
    outer loop
      vertex 70 74.5 3
      vertex 100 74.5 3
      vertex 70 76.5 3
    endloop
  endfacet
  facet normal 0 0 1
    outer loop
      vertex 100 74.5 3
      vertex 70 74.5 3
      vertex 100 -5.5 3
    endloop
  endfacet
  facet normal 0 0 1
    outer loop
      vertex 132 79 3
      vertex 70 76.5 3
      vertex 100 76.5 3
    endloop
  endfacet
  facet normal -0 0 1
    outer loop
      vertex 32 79 3
      vertex 70 76.5 3
      vertex 132 79 3
    endloop
  endfacet
  facet normal 0 0 1
    outer loop
      vertex 32 79 3
      vertex 50 74.5 3
      vertex 50 76.5 3
    endloop
  endfacet
  facet normal 0 0 1
    outer loop
      vertex 32 66 3
      vertex 50 74.5 3
      vertex 32 79 3
    endloop
  endfacet
  facet normal 0 0 1
    outer loop
      vertex 50 74.5 3
      vertex 32 66 3
      vertex 50 -5.5 3
    endloop
  endfacet
  facet normal 0 0 1
    outer loop
      vertex 70 76.5 3
      vertex 32 79 3
      vertex 50 76.5 3
    endloop
  endfacet
  facet normal 1 -0 0
    outer loop
      vertex 179 7.29999 3
      vertex 179 61 0
      vertex 179 61 3
    endloop
  endfacet
  facet normal 1 0 0
    outer loop
      vertex 179 61 0
      vertex 179 7.29999 3
      vertex 179 7.29999 0
    endloop
  endfacet
  facet normal 0.357647 0.933857 -0
    outer loop
      vertex 179 61 0
      vertex 132 79 3
      vertex 179 61 3
    endloop
  endfacet
  facet normal 0.357647 0.933857 0
    outer loop
      vertex 132 79 3
      vertex 179 61 0
      vertex 132 79 0
    endloop
  endfacet
  facet normal 0 1 -0
    outer loop
      vertex 132 79 0
      vertex 32 79 3
      vertex 132 79 3
    endloop
  endfacet
  facet normal 0 1 0
    outer loop
      vertex 32 79 3
      vertex 132 79 0
      vertex 32 79 0
    endloop
  endfacet
  facet normal -1 0 0
    outer loop
      vertex 32 66 0
      vertex 32 79 3
      vertex 32 79 0
    endloop
  endfacet
  facet normal -1 -0 0
    outer loop
      vertex 32 79 3
      vertex 32 66 0
      vertex 32 66 3
    endloop
  endfacet
  facet normal 0 1 -0
    outer loop
      vertex 32 66 0
      vertex -6 66 3
      vertex 32 66 3
    endloop
  endfacet
  facet normal 0 1 0
    outer loop
      vertex -6 66 3
      vertex 32 66 0
      vertex -6 66 0
    endloop
  endfacet
  facet normal 0 -1 0
    outer loop
      vertex -6 0 0
      vertex 32 0 3
      vertex -6 0 3
    endloop
  endfacet
  facet normal 0 -1 -0
    outer loop
      vertex 32 0 3
      vertex -6 0 0
      vertex 32 0 0
    endloop
  endfacet
  facet normal -1 0 0
    outer loop
      vertex 32 -10 0
      vertex 32 0 3
      vertex 32 0 0
    endloop
  endfacet
  facet normal -1 -0 0
    outer loop
      vertex 32 0 3
      vertex 32 -10 0
      vertex 32 -10 3
    endloop
  endfacet
  facet normal 0 -1 0
    outer loop
      vertex 32 -10 0
      vertex 132 -10 3
      vertex 32 -10 3
    endloop
  endfacet
  facet normal 0 -1 -0
    outer loop
      vertex 132 -10 3
      vertex 32 -10 0
      vertex 132 -10 0
    endloop
  endfacet
  facet normal 0.345428 -0.938445 0
    outer loop
      vertex 132 -10 0
      vertex 179 7.29999 3
      vertex 132 -10 3
    endloop
  endfacet
  facet normal 0.345428 -0.938445 0
    outer loop
      vertex 179 7.29999 3
      vertex 132 -10 0
      vertex 179 7.29999 0
    endloop
  endfacet
  facet normal -1 0 0
    outer loop
      vertex 50 -7.5 3
      vertex 50 -5.5 5
      vertex 50 -5.5 3
    endloop
  endfacet
  facet normal -1 -0 0
    outer loop
      vertex 50 -5.5 5
      vertex 50 -7.5 3
      vertex 50 -7.5 5
    endloop
  endfacet
  facet normal -0 0 1
    outer loop
      vertex 50 -5.5 5
      vertex 70 -7.5 5
      vertex 70 -5.5 5
    endloop
  endfacet
  facet normal 0 0 1
    outer loop
      vertex 70 -7.5 5
      vertex 50 -5.5 5
      vertex 50 -7.5 5
    endloop
  endfacet
  facet normal 1 -0 0
    outer loop
      vertex 70 -7.5 5
      vertex 70 -5.5 3
      vertex 70 -5.5 5
    endloop
  endfacet
  facet normal 1 0 0
    outer loop
      vertex 70 -5.5 3
      vertex 70 -7.5 5
      vertex 70 -7.5 3
    endloop
  endfacet
  facet normal 0 1 -0
    outer loop
      vertex 70 -5.5 3
      vertex 50 -5.5 5
      vertex 70 -5.5 5
    endloop
  endfacet
  facet normal 0 1 0
    outer loop
      vertex 50 -5.5 5
      vertex 70 -5.5 3
      vertex 50 -5.5 3
    endloop
  endfacet
  facet normal 0 -1 0
    outer loop
      vertex 50 -7.5 3
      vertex 70 -7.5 5
      vertex 50 -7.5 5
    endloop
  endfacet
  facet normal 0 -1 -0
    outer loop
      vertex 70 -7.5 5
      vertex 50 -7.5 3
      vertex 70 -7.5 3
    endloop
  endfacet
  facet normal -1 0 0
    outer loop
      vertex 100 -7.5 3
      vertex 100 -5.5 5
      vertex 100 -5.5 3
    endloop
  endfacet
  facet normal -1 -0 0
    outer loop
      vertex 100 -5.5 5
      vertex 100 -7.5 3
      vertex 100 -7.5 5
    endloop
  endfacet
  facet normal -0 0 1
    outer loop
      vertex 100 -5.5 5
      vertex 120 -7.5 5
      vertex 120 -5.5 5
    endloop
  endfacet
  facet normal 0 0 1
    outer loop
      vertex 120 -7.5 5
      vertex 100 -5.5 5
      vertex 100 -7.5 5
    endloop
  endfacet
  facet normal 1 -0 0
    outer loop
      vertex 120 -7.5 5
      vertex 120 -5.5 3
      vertex 120 -5.5 5
    endloop
  endfacet
  facet normal 1 0 0
    outer loop
      vertex 120 -5.5 3
      vertex 120 -7.5 5
      vertex 120 -7.5 3
    endloop
  endfacet
  facet normal 0 1 -0
    outer loop
      vertex 120 -5.5 3
      vertex 100 -5.5 5
      vertex 120 -5.5 5
    endloop
  endfacet
  facet normal 0 1 0
    outer loop
      vertex 100 -5.5 5
      vertex 120 -5.5 3
      vertex 100 -5.5 3
    endloop
  endfacet
  facet normal 0 -1 0
    outer loop
      vertex 100 -7.5 3
      vertex 120 -7.5 5
      vertex 100 -7.5 5
    endloop
  endfacet
  facet normal 0 -1 -0
    outer loop
      vertex 120 -7.5 5
      vertex 100 -7.5 3
      vertex 120 -7.5 3
    endloop
  endfacet
  facet normal -1 0 0
    outer loop
      vertex 100 74.5 3
      vertex 100 76.5 5
      vertex 100 76.5 3
    endloop
  endfacet
  facet normal -1 -0 0
    outer loop
      vertex 100 76.5 5
      vertex 100 74.5 3
      vertex 100 74.5 5
    endloop
  endfacet
  facet normal -0 0 1
    outer loop
      vertex 100 76.5 5
      vertex 120 74.5 5
      vertex 120 76.5 5
    endloop
  endfacet
  facet normal 0 0 1
    outer loop
      vertex 120 74.5 5
      vertex 100 76.5 5
      vertex 100 74.5 5
    endloop
  endfacet
  facet normal 1 -0 0
    outer loop
      vertex 120 74.5 5
      vertex 120 76.5 3
      vertex 120 76.5 5
    endloop
  endfacet
  facet normal 1 0 0
    outer loop
      vertex 120 76.5 3
      vertex 120 74.5 5
      vertex 120 74.5 3
    endloop
  endfacet
  facet normal 0 1 -0
    outer loop
      vertex 120 76.5 3
      vertex 100 76.5 5
      vertex 120 76.5 5
    endloop
  endfacet
  facet normal 0 1 0
    outer loop
      vertex 100 76.5 5
      vertex 120 76.5 3
      vertex 100 76.5 3
    endloop
  endfacet
  facet normal 0 -1 0
    outer loop
      vertex 100 74.5 3
      vertex 120 74.5 5
      vertex 100 74.5 5
    endloop
  endfacet
  facet normal 0 -1 -0
    outer loop
      vertex 120 74.5 5
      vertex 100 74.5 3
      vertex 120 74.5 3
    endloop
  endfacet
  facet normal -1 0 0
    outer loop
      vertex 50 74.5 3
      vertex 50 76.5 5
      vertex 50 76.5 3
    endloop
  endfacet
  facet normal -1 -0 0
    outer loop
      vertex 50 76.5 5
      vertex 50 74.5 3
      vertex 50 74.5 5
    endloop
  endfacet
  facet normal -0 0 1
    outer loop
      vertex 50 76.5 5
      vertex 70 74.5 5
      vertex 70 76.5 5
    endloop
  endfacet
  facet normal 0 0 1
    outer loop
      vertex 70 74.5 5
      vertex 50 76.5 5
      vertex 50 74.5 5
    endloop
  endfacet
  facet normal 1 -0 0
    outer loop
      vertex 70 74.5 5
      vertex 70 76.5 3
      vertex 70 76.5 5
    endloop
  endfacet
  facet normal 1 0 0
    outer loop
      vertex 70 76.5 3
      vertex 70 74.5 5
      vertex 70 74.5 3
    endloop
  endfacet
  facet normal 0 1 -0
    outer loop
      vertex 70 76.5 3
      vertex 50 76.5 5
      vertex 70 76.5 5
    endloop
  endfacet
  facet normal 0 1 0
    outer loop
      vertex 50 76.5 5
      vertex 70 76.5 3
      vertex 50 76.5 3
    endloop
  endfacet
  facet normal 0 -1 0
    outer loop
      vertex 50 74.5 3
      vertex 70 74.5 5
      vertex 50 74.5 5
    endloop
  endfacet
  facet normal 0 -1 -0
    outer loop
      vertex 70 74.5 5
      vertex 50 74.5 3
      vertex 70 74.5 3
    endloop
  endfacet
  facet normal -1 0 0
    outer loop
      vertex -6 0 0
      vertex -6 66 3
      vertex -6 66 0
    endloop
  endfacet
  facet normal -1 -0 0
    outer loop
      vertex -6 66 3
      vertex -6 0 0
      vertex -6 0 3
    endloop
  endfacet
  facet normal -1 0 0
    outer loop
      vertex 174.5 27 3
      vertex 174.5 47 5
      vertex 174.5 47 3
    endloop
  endfacet
  facet normal -1 -0 0
    outer loop
      vertex 174.5 47 5
      vertex 174.5 27 3
      vertex 174.5 27 5
    endloop
  endfacet
  facet normal -0 0 1
    outer loop
      vertex 174.5 47 5
      vertex 176.5 27 5
      vertex 176.5 47 5
    endloop
  endfacet
  facet normal 0 0 1
    outer loop
      vertex 176.5 27 5
      vertex 174.5 47 5
      vertex 174.5 27 5
    endloop
  endfacet
  facet normal 1 -0 0
    outer loop
      vertex 176.5 27 5
      vertex 176.5 47 3
      vertex 176.5 47 5
    endloop
  endfacet
  facet normal 1 0 0
    outer loop
      vertex 176.5 47 3
      vertex 176.5 27 5
      vertex 176.5 27 3
    endloop
  endfacet
  facet normal 0 -1 0
    outer loop
      vertex 174.5 27 3
      vertex 176.5 27 5
      vertex 174.5 27 5
    endloop
  endfacet
  facet normal 0 -1 -0
    outer loop
      vertex 176.5 27 5
      vertex 174.5 27 3
      vertex 176.5 27 3
    endloop
  endfacet
  facet normal 0 1 -0
    outer loop
      vertex 176.5 47 3
      vertex 174.5 47 5
      vertex 176.5 47 5
    endloop
  endfacet
  facet normal 0 1 0
    outer loop
      vertex 174.5 47 5
      vertex 176.5 47 3
      vertex 174.5 47 3
    endloop
  endfacet
endsolid OpenSCAD_Model
